<svg width="500" height="500" viewBox="0 0 500 500" fill="none" xmlns="http://www.w3.org/2000/svg">
<path d="M250 225C194.772 225 150 180.228 150 125C150 69.7715 194.772 25 250 25C305.228 25 350 69.7715 350 125C350 180.228 305.228 225 250 225Z" fill="#966E32"/>
<path d="M125 0H0V385.276C34.859 309.438 103.211 252.184 186.109 232.46C149.515 210.656 125 170.691 125 125V0Z" fill="#7CAC40"/>
<path d="M500 125C500 263.071 388.071 375 250 375C180.964 375 125 430.964 125 500H0C0 361.929 111.929 250 250 250C319.036 250 375 194.036 375 125H500Z" fill="#7CAC40"/>
<path d="M313.891 392.539C359.027 381.8 399.852 359.935 433.305 330.001C474.694 374.609 500 434.349 500 500H375C375 454.309 350.485 414.343 313.891 392.539Z" fill="#7CAC40"/>
</svg>
